<svg version="1.1" id="Layer_1" xmlns="http://www.w3.org/2000/svg" xmlns:xlink="http://www.w3.org/1999/xlink" x="0px" y="0px"
	 width="100%" viewBox="0 0 512 512" enable-background="new 0 0 512 512" xml:space="preserve">
<path fill="#010000" opacity="1.000000" stroke="none" 
	d="
M513.000000,178.000000 
	C513.000000,289.972778 513.000000,401.445557 513.000000,512.959167 
	C342.402222,512.959167 171.804413,512.959167 1.103307,512.959167 
	C1.103307,342.443909 1.103307,171.887756 1.103307,1.165792 
	C171.666534,1.165792 342.333252,1.165792 513.000000,1.165792 
	C513.000000,59.862217 513.000000,118.681107 513.000000,178.000000 
M426.650787,426.717072 
	C431.786804,423.731750 436.922852,420.746399 442.212494,417.671722 
	C439.428406,412.869934 436.873108,408.462708 434.097992,403.676392 
	C428.772888,406.925262 423.854553,409.925964 418.240509,413.050751 
	C392.095245,428.110962 365.949982,443.171143 339.626251,458.334167 
	C342.448029,463.213043 344.995361,467.617401 347.665863,472.234741 
	C348.907349,471.567505 349.777527,471.131805 350.617371,470.643829 
	C375.738647,456.049316 400.856903,441.449615 426.650787,426.717072 
M444.808350,456.002441 
	C449.634308,453.244873 454.460236,450.487305 459.491608,447.612335 
	C456.008972,441.597565 452.901062,436.229980 449.649841,430.614868 
	C444.136627,433.954132 439.073425,437.020813 433.322052,440.194214 
	C407.341797,455.196991 381.361542,470.199768 355.189331,485.313354 
	C358.690796,491.351074 361.824280,496.754303 364.877319,502.018860 
	C367.517700,500.754303 369.645203,499.909760 371.601685,498.771240 
	C390.266113,487.909668 408.913818,477.019104 427.537903,466.088440 
	C433.098358,462.824951 438.569427,459.409210 444.808350,456.002441 
M324.881012,294.102142 
	C331.746887,290.008698 338.935272,290.111633 346.267212,293.127747 
	C346.267212,267.703369 346.267212,242.951447 346.267212,218.133194 
	C338.614197,218.133194 331.296326,218.133194 323.055298,217.978119 
	C306.385956,217.978119 289.716583,217.978119 272.268372,217.978119 
	C291.484619,238.033005 293.832794,266.447571 279.254303,287.583679 
	C278.662476,288.441711 278.408905,290.169922 278.870850,291.016174 
	C282.256622,297.218781 285.865448,303.299652 289.542206,309.658051 
	C297.341309,302.702576 305.597198,299.459045 311.949799,302.305511 
	C316.886047,299.068115 320.518494,296.685760 324.881012,294.102142 
M317.040741,16.056067 
	C258.318542,16.037943 199.596344,16.012983 140.874161,16.034035 
	C139.075256,16.034679 137.211487,16.294733 135.488449,16.806166 
	C125.537491,19.759842 121.268204,28.583693 123.609909,41.893909 
	C128.274643,41.893909 133.067001,42.115356 137.829956,41.835835 
	C143.336960,41.512653 146.766342,43.676144 147.856552,49.755894 
	C146.708725,55.068520 143.197266,57.024540 138.025940,56.899345 
	C133.095505,56.779984 128.159897,56.873623 123.314407,56.873623 
	C123.314407,69.633797 123.314407,81.839760 123.314407,94.107277 
	C190.122482,94.107277 256.564270,94.107536 323.006042,94.099861 
	C323.333374,94.099823 323.660675,93.987404 324.910736,94.113220 
	C332.027435,94.113220 339.144165,94.113220 346.506958,94.113220 
	C346.506958,81.547241 346.506958,69.471291 346.506958,57.071514 
	C338.868683,57.071514 331.428436,57.071514 323.067169,56.894005 
	C310.928375,56.887260 298.752930,57.452686 286.663330,56.678177 
	C278.214813,56.136940 272.222839,58.568817 267.153778,65.274117 
	C265.319702,67.700249 261.547638,69.943138 258.595184,70.028358 
	C242.645096,70.488724 226.672699,70.368263 210.713440,70.110916 
	C208.356247,70.072906 205.015976,68.901100 203.855637,67.126129 
	C197.724945,57.747906 189.172745,55.199387 178.705765,56.849609 
	C177.570007,57.028667 176.381393,56.887489 175.217621,56.871315 
	C168.943268,56.784130 166.966812,55.276382 165.359360,48.457428 
	C166.545456,43.697052 169.595261,41.651817 174.476135,41.858948 
	C178.624603,42.034992 182.866241,42.413776 186.926773,41.790970 
	C197.077332,40.234074 204.497711,43.887737 210.398361,52.063416 
	C211.653610,53.802631 214.754303,54.989807 217.048996,55.063992 
	C227.012878,55.386112 237.020752,54.749794 246.958054,55.356224 
	C253.963943,55.783764 259.122955,53.956909 262.922180,47.992767 
	C266.067291,43.055435 270.691376,41.646252 276.578339,41.763256 
	C292.358948,42.076897 308.152130,41.757805 324.873932,41.852020 
	C332.095459,41.852020 339.316956,41.852020 346.850250,41.852020 
	C346.850250,39.554977 346.845917,38.075859 346.850922,36.596771 
	C346.897064,22.994560 339.971649,15.998231 326.419891,16.001875 
	C323.601654,16.002636 320.783386,16.123238 317.040741,16.056067 
M270.009277,369.716553 
	C270.265564,369.712341 270.521820,369.708160 270.778107,369.703979 
	C270.614136,369.372131 270.450134,369.040314 270.171265,368.012726 
	C259.808807,350.011017 249.501953,331.976593 238.978867,314.069275 
	C238.131393,312.627106 235.768829,311.164490 234.158264,311.215820 
	C200.952530,312.274078 176.302338,278.884399 181.519714,246.454330 
	C183.284637,235.483917 188.554688,226.324432 196.809647,218.172058 
	C171.803253,218.172058 147.577988,218.172058 122.947937,218.172058 
	C122.947937,219.995758 122.947929,221.617035 122.947929,223.238297 
	C122.947922,240.894485 122.799828,258.552582 123.029587,276.205780 
	C123.108253,282.250305 121.822754,286.797089 115.113792,287.905426 
	C115.113792,293.690002 115.113792,299.165161 115.113792,304.620209 
	C122.279396,307.552002 122.942970,308.566132 122.947334,316.566376 
	C122.950333,322.063110 122.947922,327.559845 122.947929,333.056580 
	C122.947929,343.168945 122.947937,353.281342 122.947937,362.974335 
	C123.561600,363.493591 123.688576,363.695251 123.815933,363.695526 
	C149.629211,363.745819 175.442627,363.815765 201.255432,363.719849 
	C202.563477,363.714996 203.882034,362.301636 205.168549,361.500458 
	C209.730637,358.659241 213.938858,354.620911 218.903458,353.179535 
	C231.043274,349.654968 242.610184,352.756287 253.339035,358.999359 
	C258.918335,362.245880 264.332031,365.777008 270.009277,369.716553 
M359.759674,315.531708 
	C354.443268,320.316376 350.673004,319.815857 346.532684,314.262238 
	C344.489105,311.521088 342.163025,308.547852 339.258301,307.046082 
	C337.302002,306.034607 333.626709,306.667480 331.624817,307.962646 
	C330.056152,308.977478 329.672180,312.091797 329.170868,314.363617 
	C328.953156,315.350403 329.672882,316.600952 330.120026,317.667511 
	C331.833954,321.755981 331.167877,325.327271 327.365448,327.699280 
	C323.204651,330.294952 319.801514,328.492584 316.843811,325.174072 
	C314.746002,322.820282 312.856689,319.917633 310.208588,318.534790 
	C308.173706,317.472168 304.333740,317.413361 302.691193,318.695221 
	C300.790100,320.178864 300.165924,323.557983 299.506775,326.241760 
	C299.255035,327.266724 300.586060,328.603912 300.946259,329.869812 
	C302.086304,333.876556 301.084930,337.187347 297.224152,339.127808 
	C293.550262,340.974335 290.429779,339.839294 287.975037,336.738373 
	C287.156158,335.703949 286.550812,334.495697 285.885834,333.344971 
	C272.576843,310.313599 259.277710,287.276550 245.964066,264.247864 
	C244.050888,260.938599 242.163208,257.608887 240.101227,254.392822 
	C237.831436,250.852646 234.693497,250.332016 231.003220,252.156281 
	C225.548676,254.852722 224.563766,258.887878 228.113922,265.045715 
	C246.879990,297.595886 265.684296,330.124023 284.472961,362.661194 
	C285.304352,364.100983 286.195557,365.514130 286.916809,367.008240 
	C289.573090,372.510895 288.776978,378.357788 284.835815,382.812378 
	C280.669708,387.521271 275.614655,388.943756 269.512299,386.360809 
	C265.573212,384.693481 261.993439,382.172668 258.265137,380.012817 
	C251.811920,376.274353 245.581802,372.064728 238.857117,368.906616 
	C232.858643,366.089539 226.248657,365.810852 219.912430,368.438202 
	C216.200119,369.977600 216.037323,371.631134 219.048294,373.990845 
	C239.094040,389.701233 259.221893,405.308502 279.140289,421.178650 
	C284.659851,425.576447 290.539368,428.462982 297.541443,429.293121 
	C307.680878,430.495178 317.585266,432.496918 326.160248,439.710175 
	C327.898132,441.686890 329.636017,443.663635 331.455566,445.733246 
	C360.111603,429.179993 388.123779,412.998657 414.684113,397.656006 
	C413.349182,388.344635 412.465424,380.141846 410.915466,372.066925 
	C409.833679,366.431152 408.783752,360.453583 406.085022,355.523438 
	C395.867950,336.858673 385.018311,318.538971 374.327942,300.135132 
	C371.314423,294.947205 368.642792,293.992889 364.201691,296.045166 
	C359.718201,298.117096 358.522156,301.574554 359.792908,306.821106 
	C360.422852,309.421967 360.102661,312.252930 359.759674,315.531708 
M55.853081,179.499939 
	C55.853081,187.251053 55.853081,195.002151 55.853081,202.653152 
	C175.423767,202.653152 294.298157,202.653152 413.544800,202.653152 
	C413.544800,193.199356 413.583069,184.058167 413.527924,174.917557 
	C413.502045,170.627106 415.050415,167.596542 419.326263,166.060806 
	C420.404572,165.673508 421.756439,164.254715 421.841614,163.216324 
	C422.153992,159.409225 422.153320,155.551636 421.902374,151.737274 
	C421.820526,150.493439 420.827271,148.496216 419.887848,148.254547 
	C413.921539,146.719650 413.475494,142.308823 413.517395,137.358261 
	C413.596008,128.069000 413.540039,118.778595 413.540039,109.376366 
	C294.064301,109.376366 175.174728,109.376366 55.853077,109.376366 
	C55.853077,132.588028 55.853077,155.543991 55.853081,179.499939 
M204.874496,381.255096 
	C202.893387,380.451202 200.916992,378.961487 198.930481,378.947906 
	C175.274734,378.785797 151.617462,378.838867 127.960609,378.853607 
	C126.375626,378.854584 124.790741,379.001129 123.332397,379.073700 
	C120.551270,398.024689 130.974731,405.478760 146.266586,405.093719 
	C173.904282,404.397797 201.572037,404.896790 229.227249,404.896820 
	C230.795883,404.896820 232.364517,404.896820 235.241684,404.896820 
	C232.437607,402.688202 230.786667,401.357971 229.104691,400.068176 
	C221.185318,393.995148 213.257446,387.933167 204.874496,381.255096 
M223.296539,219.636383 
	C203.728638,226.107300 192.348694,244.995819 196.246246,264.534637 
	C199.429596,280.493103 215.206055,295.613403 227.806076,294.504242 
	C223.192245,286.491089 218.479141,278.657654 214.111130,270.636353 
	C207.643814,258.759918 211.177612,246.316162 222.651260,239.678833 
	C234.498917,232.825165 246.269394,235.784027 253.604630,247.604095 
	C256.673553,252.549423 259.454559,257.673035 262.383698,262.705597 
	C264.622162,266.551514 266.887665,270.381683 269.431458,274.713257 
	C273.123627,267.536407 274.469238,260.658386 273.606262,253.346390 
	C271.175018,232.746841 251.743332,212.091263 223.296539,219.636383 
z"/>
<path fill="#FCDE75" opacity="1.000000" stroke="none" 
	d="
M55.853081,178.999939 
	C55.853077,155.543991 55.853077,132.588028 55.853077,109.376366 
	C175.174728,109.376366 294.064301,109.376366 413.540039,109.376366 
	C413.540039,118.778595 413.596008,128.069000 413.517395,137.358261 
	C413.475494,142.308823 413.921539,146.719650 419.887848,148.254547 
	C420.827271,148.496216 421.820526,150.493439 421.902374,151.737274 
	C422.153320,155.551636 422.153992,159.409225 421.841614,163.216324 
	C421.756439,164.254715 420.404572,165.673508 419.326263,166.060806 
	C415.050415,167.596542 413.502045,170.627106 413.527924,174.917557 
	C413.583069,184.058167 413.544800,193.199356 413.544800,202.653152 
	C294.298157,202.653152 175.423767,202.653152 55.853081,202.653152 
	C55.853081,195.002151 55.853081,187.251053 55.853081,178.999939 
M288.190033,155.538406 
	C287.652618,142.255768 281.245514,132.740341 269.102386,127.656250 
	C257.484985,122.792274 246.456314,124.832283 237.070862,133.185181 
	C227.477798,141.722824 224.691986,152.663544 228.092697,164.919724 
	C231.963058,178.868423 246.583282,188.482941 260.557037,186.722046 
	C276.503845,184.712479 287.373474,172.808350 288.190033,155.538406 
M298.961731,153.500031 
	C298.963013,161.823410 298.901978,170.147446 298.988953,178.469925 
	C299.041260,183.476364 302.041321,186.782654 306.311920,186.858658 
	C310.572723,186.934494 313.724213,183.618118 313.939026,178.705460 
	C314.040955,176.374130 313.956512,174.034653 313.956512,170.627365 
	C318.306396,175.578415 321.662659,179.495773 325.126923,183.315155 
	C328.859924,187.430847 333.019836,187.986176 336.501221,184.974030 
	C339.883392,182.047714 339.911224,177.670715 336.429169,173.492950 
	C333.583862,170.079163 330.602692,166.778641 327.516174,163.237946 
	C328.629211,162.447021 329.412445,161.887360 330.198792,161.332138 
	C337.263672,156.343872 340.523102,148.252563 338.608185,140.453979 
	C336.586914,132.222275 330.009644,126.238937 321.369934,125.378845 
	C316.752258,124.919159 312.055298,125.098152 307.399841,125.215607 
	C301.655365,125.360519 299.042938,128.143906 298.977966,134.022354 
	C298.909943,140.180908 298.962097,146.340775 298.961731,153.500031 
M103.224586,181.299728 
	C103.774002,181.925171 104.305374,182.567612 104.875725,183.173340 
	C108.921204,187.469788 113.116966,188.033981 116.612160,184.762268 
	C119.899277,181.685303 119.761223,177.575012 116.126236,173.273071 
	C113.348900,169.986145 110.480446,166.776199 107.468758,163.321198 
	C108.581528,162.479050 109.473694,161.788361 110.381660,161.119125 
	C117.254807,156.053116 120.352013,148.214172 118.484070,140.597717 
	C116.463783,132.360062 110.383614,126.488350 101.869865,125.505539 
	C96.608948,124.898224 91.209412,124.964333 85.914749,125.335846 
	C81.291481,125.660255 78.880692,128.643417 78.887108,133.422760 
	C78.907249,148.412186 78.852730,163.401825 78.914505,178.391022 
	C78.935318,183.442764 81.880020,186.740982 86.139664,186.853256 
	C90.541222,186.969269 93.687019,183.510284 93.874496,178.258713 
	C93.951859,176.091629 93.887321,173.919479 93.887321,170.702530 
	C97.478409,174.762192 100.125008,177.754135 103.224586,181.299728 
M147.485825,186.677032 
	C150.480591,186.665970 153.487793,186.824249 156.467255,186.605072 
	C161.214478,186.255859 164.089706,183.218811 164.013718,178.975372 
	C163.938293,174.763351 160.985550,171.923462 156.164276,171.716599 
	C152.543427,171.561249 148.910553,171.685898 145.006287,171.685898 
	C145.006287,168.805634 145.006287,166.416718 145.006287,163.524414 
	C148.529099,163.524414 151.826920,163.705627 155.096832,163.480835 
	C159.700043,163.164368 162.784836,159.876465 162.651459,155.812820 
	C162.523117,151.903625 159.554092,148.923248 155.142288,148.646606 
	C151.865402,148.441132 148.565277,148.606171 145.000031,148.606171 
	C145.000031,145.710159 145.000031,143.315506 145.000031,140.444885 
	C148.711823,140.444885 152.167572,140.545120 155.615280,140.421509 
	C160.851517,140.233780 163.902969,137.516434 164.014999,133.152893 
	C164.132294,128.584473 160.979095,125.603065 155.517609,125.459396 
	C150.030594,125.315048 144.535934,125.360062 139.046356,125.439728 
	C132.158371,125.539688 129.754745,127.933937 129.719299,134.814499 
	C129.659317,146.461288 129.702347,158.108627 129.702271,169.755737 
	C129.702164,186.677216 129.702225,186.677216 147.485825,186.677032 
M181.307281,125.282410 
	C176.709137,126.329704 174.742599,129.241852 174.767761,133.916779 
	C174.847443,148.726501 174.755386,163.537140 174.823441,178.346985 
	C174.846832,183.435928 177.742065,186.712112 181.986633,186.851532 
	C186.367538,186.995422 189.592804,183.549057 189.767654,178.309555 
	C189.893936,174.525620 189.792267,170.734085 189.792267,166.531693 
	C192.109085,166.531693 193.914871,166.626801 195.707977,166.516342 
	C207.893509,165.765656 216.352097,156.827271 216.018082,145.106339 
	C215.698364,133.887192 206.609451,125.390083 194.648102,125.193047 
	C190.489273,125.124535 186.328156,125.195717 181.307281,125.282410 
M372.478149,125.173073 
	C367.479797,125.178902 362.474426,125.021774 357.485168,125.237511 
	C352.731598,125.443069 349.857300,128.484863 349.868561,132.776230 
	C349.879944,137.109100 352.720886,139.844559 357.564697,140.166580 
	C359.026581,140.263779 360.491180,140.320007 362.348633,140.415192 
	C362.432556,142.254105 362.566498,143.866028 362.569824,145.478226 
	C362.589813,155.141800 362.579742,164.805405 362.579956,174.469009 
	C362.579987,175.468689 362.564087,176.468750 362.585419,177.467987 
	C362.710663,183.337006 365.437439,186.799454 369.968353,186.857056 
	C374.498444,186.914642 377.543365,183.382462 377.588898,177.652725 
	C377.673645,166.990097 377.603973,156.326309 377.628754,145.663086 
	C377.632843,143.913513 377.791168,142.164307 377.890015,140.177521 
	C379.772980,140.177521 381.089508,140.236740 382.399170,140.166992 
	C387.346069,139.903564 390.192322,137.322220 390.346344,133.016449 
	C390.504944,128.583084 387.443878,125.465225 382.461029,125.211174 
	C379.469604,125.058655 376.464386,125.176659 372.478149,125.173073 
z"/>
<path fill="#FDD1A3" opacity="1.000000" stroke="none" 
	d="
M325.876770,439.095398 
	C317.585266,432.496918 307.680878,430.495178 297.541443,429.293121 
	C290.539368,428.462982 284.659851,425.576447 279.140289,421.178650 
	C259.221893,405.308502 239.094040,389.701233 219.048294,373.990845 
	C216.037323,371.631134 216.200119,369.977600 219.912430,368.438202 
	C226.248657,365.810852 232.858643,366.089539 238.857117,368.906616 
	C245.581802,372.064728 251.811920,376.274353 258.265137,380.012817 
	C261.993439,382.172668 265.573212,384.693481 269.512299,386.360809 
	C275.614655,388.943756 280.669708,387.521271 284.835815,382.812378 
	C288.776978,378.357788 289.573090,372.510895 286.916809,367.008240 
	C286.195557,365.514130 285.304352,364.100983 284.472961,362.661194 
	C265.684296,330.124023 246.879990,297.595886 228.113922,265.045715 
	C224.563766,258.887878 225.548676,254.852722 231.003220,252.156281 
	C234.693497,250.332016 237.831436,250.852646 240.101227,254.392822 
	C242.163208,257.608887 244.050888,260.938599 245.964066,264.247864 
	C259.277710,287.276550 272.576843,310.313599 285.885834,333.344971 
	C286.550812,334.495697 287.156158,335.703949 287.975037,336.738373 
	C290.429779,339.839294 293.550262,340.974335 297.224152,339.127808 
	C301.084930,337.187347 302.086304,333.876556 300.946259,329.869812 
	C300.586060,328.603912 299.255035,327.266724 299.506775,326.241760 
	C300.165924,323.557983 300.790100,320.178864 302.691193,318.695221 
	C304.333740,317.413361 308.173706,317.472168 310.208588,318.534790 
	C312.856689,319.917633 314.746002,322.820282 316.843811,325.174072 
	C319.801514,328.492584 323.204651,330.294952 327.365448,327.699280 
	C331.167877,325.327271 331.833954,321.755981 330.120026,317.667511 
	C329.672882,316.600952 328.953156,315.350403 329.170868,314.363617 
	C329.672180,312.091797 330.056152,308.977478 331.624817,307.962646 
	C333.626709,306.667480 337.302002,306.034607 339.258301,307.046082 
	C342.163025,308.547852 344.489105,311.521088 346.532684,314.262238 
	C350.673004,319.815857 354.443268,320.316376 360.319031,315.322021 
	C361.893524,316.354706 363.088379,317.491089 363.893921,318.857086 
	C368.367035,326.442200 372.786987,334.059479 377.145721,341.711060 
	C382.232208,350.640167 387.941071,359.260803 388.326111,370.143402 
	C388.523773,375.730804 389.275208,381.383118 390.534882,386.830688 
	C393.095245,397.903320 391.315308,402.572052 381.516510,408.231079 
	C368.998352,415.460663 356.562714,422.835724 343.969879,429.932220 
	C338.086121,433.247986 331.916718,436.056824 325.876770,439.095398 
z"/>
<path fill="#EEECEE" opacity="1.000000" stroke="none" 
	d="
M269.820526,369.179565 
	C264.332031,365.777008 258.918335,362.245880 253.339035,358.999359 
	C242.610184,352.756287 231.043274,349.654968 218.903458,353.179535 
	C213.938858,354.620911 209.730637,358.659241 205.168549,361.500458 
	C203.882034,362.301636 202.563477,363.714996 201.255432,363.719849 
	C175.442627,363.815765 149.629211,363.745819 123.815933,363.695526 
	C123.688576,363.695251 123.561600,363.493591 122.947937,362.974335 
	C122.947937,353.281342 122.947929,343.168945 122.947929,333.056580 
	C122.947922,327.559845 122.950333,322.063110 122.947334,316.566376 
	C122.942970,308.566132 122.279396,307.552002 115.113792,304.620209 
	C115.113792,299.165161 115.113792,293.690002 115.113792,287.905426 
	C121.822754,286.797089 123.108253,282.250305 123.029587,276.205780 
	C122.799828,258.552582 122.947922,240.894485 122.947929,223.238297 
	C122.947929,221.617035 122.947937,219.995758 122.947937,218.172058 
	C147.577988,218.172058 171.803253,218.172058 196.809647,218.172058 
	C188.554688,226.324432 183.284637,235.483917 181.519714,246.454330 
	C176.302338,278.884399 200.952530,312.274078 234.158264,311.215820 
	C235.768829,311.164490 238.131393,312.627106 238.978867,314.069275 
	C249.501953,331.976593 259.808807,350.011017 270.112793,368.478851 
	C270.054291,368.944977 269.820526,369.179565 269.820526,369.179565 
z"/>
<path fill="#EEECEE" opacity="1.000000" stroke="none" 
	d="
M164.944565,49.050247 
	C166.966812,55.276382 168.943268,56.784130 175.217621,56.871315 
	C176.381393,56.887489 177.570007,57.028667 178.705765,56.849609 
	C189.172745,55.199387 197.724945,57.747906 203.855637,67.126129 
	C205.015976,68.901100 208.356247,70.072906 210.713440,70.110916 
	C226.672699,70.368263 242.645096,70.488724 258.595184,70.028358 
	C261.547638,69.943138 265.319702,67.700249 267.153778,65.274117 
	C272.222839,58.568817 278.214813,56.136940 286.663330,56.678177 
	C298.752930,57.452686 310.928375,56.887260 323.536621,57.446747 
	C324.000061,69.975479 323.994049,81.951469 323.988037,93.927460 
	C323.660675,93.987404 323.333374,94.099823 323.006042,94.099861 
	C256.564270,94.107536 190.122482,94.107277 123.314407,94.107277 
	C123.314407,81.839760 123.314407,69.633797 123.314407,56.873623 
	C128.159897,56.873623 133.095505,56.779984 138.025940,56.899345 
	C143.197266,57.024540 146.708725,55.068520 148.428116,49.445118 
	C154.314636,49.106312 159.629608,49.078281 164.944565,49.050247 
z"/>
<path fill="#796C78" opacity="1.000000" stroke="none" 
	d="
M165.151962,48.753838 
	C159.629608,49.078281 154.314636,49.106312 148.537933,49.103065 
	C146.766342,43.676144 143.336960,41.512653 137.829956,41.835835 
	C133.067001,42.115356 128.274643,41.893909 123.609909,41.893909 
	C121.268204,28.583693 125.537491,19.759842 135.488449,16.806166 
	C137.211487,16.294733 139.075256,16.034679 140.874161,16.034035 
	C199.596344,16.012983 258.318542,16.037943 317.566284,16.457329 
	C324.547150,24.074482 324.346191,32.858128 323.940338,41.690037 
	C308.152130,41.757805 292.358948,42.076897 276.578339,41.763256 
	C270.691376,41.646252 266.067291,43.055435 262.922180,47.992767 
	C259.122955,53.956909 253.963943,55.783764 246.958054,55.356224 
	C237.020752,54.749794 227.012878,55.386112 217.048996,55.063992 
	C214.754303,54.989807 211.653610,53.802631 210.398361,52.063416 
	C204.497711,43.887737 197.077332,40.234074 186.926773,41.790970 
	C182.866241,42.413776 178.624603,42.034992 174.476135,41.858948 
	C169.595261,41.651817 166.545456,43.697052 165.151962,48.753838 
M235.479172,28.099649 
	C232.663864,28.110943 229.832947,27.938143 227.036789,28.175308 
	C222.481888,28.561655 219.684311,31.802084 219.892014,36.089455 
	C220.093201,40.242599 222.785919,42.903126 227.377823,43.049049 
	C232.506638,43.212036 237.648163,43.208687 242.777451,43.054527 
	C247.475372,42.913338 250.556381,39.864666 250.550995,35.739063 
	C250.545609,31.609041 247.486343,28.496958 242.893860,28.144163 
	C240.753052,27.979706 238.589935,28.105516 235.479172,28.099649 
z"/>
<path fill="#EEECEE" opacity="1.000000" stroke="none" 
	d="
M324.150940,294.303406 
	C320.518494,296.685760 316.886047,299.068115 311.949799,302.305511 
	C305.597198,299.459045 297.341309,302.702576 289.542206,309.658051 
	C285.865448,303.299652 282.256622,297.218781 278.870850,291.016174 
	C278.408905,290.169922 278.662476,288.441711 279.254303,287.583679 
	C293.832794,266.447571 291.484619,238.033005 272.268372,217.978119 
	C289.716583,217.978119 306.385956,217.978119 323.528320,218.515686 
	C324.051178,244.136627 324.101044,269.220001 324.150940,294.303406 
z"/>
<path fill="#FCBB85" opacity="1.000000" stroke="none" 
	d="
M326.018494,439.402771 
	C331.916718,436.056824 338.086121,433.247986 343.969879,429.932220 
	C356.562714,422.835724 368.998352,415.460663 381.516510,408.231079 
	C391.315308,402.572052 393.095245,397.903320 390.534882,386.830688 
	C389.275208,381.383118 388.523773,375.730804 388.326111,370.143402 
	C387.941071,359.260803 382.232208,350.640167 377.145721,341.711060 
	C372.786987,334.059479 368.367035,326.442200 363.893921,318.857086 
	C363.088379,317.491089 361.893524,316.354706 360.545349,315.046082 
	C360.102661,312.252930 360.422852,309.421967 359.792908,306.821106 
	C358.522156,301.574554 359.718201,298.117096 364.201691,296.045166 
	C368.642792,293.992889 371.314423,294.947205 374.327942,300.135132 
	C385.018311,318.538971 395.867950,336.858673 406.085022,355.523438 
	C408.783752,360.453583 409.833679,366.431152 410.915466,372.066925 
	C412.465424,380.141846 413.349182,388.344635 414.684113,397.656006 
	C388.123779,412.998657 360.111603,429.179993 331.455566,445.733246 
	C329.636017,443.663635 327.898132,441.686890 326.018494,439.402771 
z"/>
<path fill="#796C78" opacity="1.000000" stroke="none" 
	d="
M205.103546,381.561157 
	C213.257446,387.933167 221.185318,393.995148 229.104691,400.068176 
	C230.786667,401.357971 232.437607,402.688202 235.241684,404.896820 
	C232.364517,404.896820 230.795883,404.896820 229.227249,404.896820 
	C201.572037,404.896790 173.904282,404.397797 146.266586,405.093719 
	C130.974731,405.478760 120.551270,398.024689 123.332397,379.073700 
	C124.790741,379.001129 126.375626,378.854584 127.960609,378.853607 
	C151.617462,378.838867 175.274734,378.785797 198.930481,378.947906 
	C200.916992,378.961487 202.893387,380.451202 205.103546,381.561157 
z"/>
<path fill="#FA626D" opacity="1.000000" stroke="none" 
	d="
M223.678589,219.481995 
	C251.743332,212.091263 271.175018,232.746841 273.606262,253.346390 
	C274.469238,260.658386 273.123627,267.536407 269.431458,274.713257 
	C266.887665,270.381683 264.622162,266.551514 262.383698,262.705597 
	C259.454559,257.673035 256.673553,252.549423 253.604630,247.604095 
	C246.269394,235.784027 234.498917,232.825165 222.651260,239.678833 
	C211.177612,246.316162 207.643814,258.759918 214.111130,270.636353 
	C218.479141,278.657654 223.192245,286.491089 227.806076,294.504242 
	C215.206055,295.613403 199.429596,280.493103 196.246246,264.534637 
	C192.348694,244.995819 203.728638,226.107300 223.678589,219.481995 
z"/>
<path fill="#FC636E" opacity="1.000000" stroke="none" 
	d="
M444.081451,456.063232 
	C438.569427,459.409210 433.098358,462.824951 427.537903,466.088440 
	C408.913818,477.019104 390.266113,487.909668 371.601685,498.771240 
	C369.645203,499.909760 367.517700,500.754303 364.877319,502.018860 
	C361.824280,496.754303 358.690796,491.351074 355.189331,485.313354 
	C381.361542,470.199768 407.341797,455.196991 433.811768,440.451050 
	C437.561462,445.826324 440.821472,450.944763 444.081451,456.063232 
z"/>
<path fill="#D3CCD2" opacity="1.000000" stroke="none" 
	d="
M324.515961,294.202759 
	C324.101044,269.220001 324.051178,244.136627 323.989899,218.593231 
	C331.296326,218.133194 338.614197,218.133194 346.267212,218.133194 
	C346.267212,242.951447 346.267212,267.703369 346.267212,293.127747 
	C338.935272,290.111633 331.746887,290.008698 324.515961,294.202759 
z"/>
<path fill="#FA626D" opacity="1.000000" stroke="none" 
	d="
M425.975647,426.850739 
	C400.856903,441.449615 375.738647,456.049316 350.617371,470.643829 
	C349.777527,471.131805 348.907349,471.567505 347.665863,472.234741 
	C344.995361,467.617401 342.448029,463.213043 339.626251,458.334167 
	C365.949982,443.171143 392.095245,428.110962 418.642639,413.349457 
	C421.355072,418.049011 423.665375,422.449860 425.975647,426.850739 
z"/>
<path fill="#D4CDD3" opacity="1.000000" stroke="none" 
	d="
M324.449402,94.020340 
	C323.994049,81.951469 324.000061,69.975479 323.997131,57.535500 
	C331.428436,57.071514 338.868683,57.071514 346.506958,57.071514 
	C346.506958,69.471291 346.506958,81.547241 346.506958,94.113220 
	C339.144165,94.113220 332.027435,94.113220 324.449402,94.020340 
z"/>
<path fill="#665C66" opacity="1.000000" stroke="none" 
	d="
M324.407135,41.771027 
	C324.346191,32.858128 324.547150,24.074482 318.028473,16.523602 
	C320.783386,16.123238 323.601654,16.002636 326.419891,16.001875 
	C339.971649,15.998231 346.897064,22.994560 346.850922,36.596771 
	C346.845917,38.075859 346.850250,39.554977 346.850250,41.852020 
	C339.316956,41.852020 332.095459,41.852020 324.407135,41.771027 
z"/>
<path fill="#FA4754" opacity="1.000000" stroke="none" 
	d="
M444.444885,456.032837 
	C440.821472,450.944763 437.561462,445.826324 434.155884,440.397675 
	C439.073425,437.020813 444.136627,433.954132 449.649841,430.614868 
	C452.901062,436.229980 456.008972,441.597565 459.491608,447.612335 
	C454.460236,450.487305 449.634308,453.244873 444.444885,456.032837 
z"/>
<path fill="#F84653" opacity="1.000000" stroke="none" 
	d="
M426.313232,426.783905 
	C423.665375,422.449860 421.355072,418.049011 418.990509,413.287415 
	C423.854553,409.925964 428.772888,406.925262 434.097992,403.676392 
	C436.873108,408.462708 439.428406,412.869934 442.212494,417.671722 
	C436.922852,420.746399 431.786804,423.731750 426.313232,426.783905 
z"/>
<path fill="#EEECEE" opacity="1.000000" stroke="none" 
	d="
M270.170227,368.826721 
	C270.450134,369.040314 270.614136,369.372131 270.778107,369.703979 
	C270.521820,369.708160 270.265564,369.712341 269.914917,369.448059 
	C269.820526,369.179565 270.054291,368.944977 270.170227,368.826721 
z"/>
<path fill="#040302" opacity="1.000000" stroke="none" 
	d="
M288.190216,155.998535 
	C287.373474,172.808350 276.503845,184.712479 260.557037,186.722046 
	C246.583282,188.482941 231.963058,178.868423 228.092697,164.919724 
	C224.691986,152.663544 227.477798,141.722824 237.070862,133.185181 
	C246.456314,124.832283 257.484985,122.792274 269.102386,127.656250 
	C281.245514,132.740341 287.652618,142.255768 288.190216,155.998535 
M258.303467,140.205200 
	C256.501740,140.462158 254.615540,140.462357 252.913528,141.022385 
	C246.899109,143.001358 243.045853,147.125824 242.024200,153.426056 
	C240.971146,159.919846 243.247162,165.270523 248.680573,169.012283 
	C253.939285,172.633728 259.547485,172.864700 265.157928,169.785095 
	C271.035461,166.558914 274.032593,160.149506 273.019318,153.329376 
	C272.049408,146.801117 267.164276,142.216766 258.303467,140.205200 
z"/>
<path fill="#040302" opacity="1.000000" stroke="none" 
	d="
M298.961731,153.000061 
	C298.962097,146.340775 298.909943,140.180908 298.977966,134.022354 
	C299.042938,128.143906 301.655365,125.360519 307.399841,125.215607 
	C312.055298,125.098152 316.752258,124.919159 321.369934,125.378845 
	C330.009644,126.238937 336.586914,132.222275 338.608185,140.453979 
	C340.523102,148.252563 337.263672,156.343872 330.198792,161.332138 
	C329.412445,161.887360 328.629211,162.447021 327.516174,163.237946 
	C330.602692,166.778641 333.583862,170.079163 336.429169,173.492950 
	C339.911224,177.670715 339.883392,182.047714 336.501221,184.974030 
	C333.019836,187.986176 328.859924,187.430847 325.126923,183.315155 
	C321.662659,179.495773 318.306396,175.578415 313.956512,170.627365 
	C313.956512,174.034653 314.040955,176.374130 313.939026,178.705460 
	C313.724213,183.618118 310.572723,186.934494 306.311920,186.858658 
	C302.041321,186.782654 299.041260,183.476364 298.988953,178.469925 
	C298.901978,170.147446 298.963013,161.823410 298.961731,153.000061 
M317.345428,149.703400 
	C321.034241,149.719971 324.235138,148.931717 323.971466,144.317108 
	C323.767761,140.752014 320.630463,139.663345 313.939453,140.749069 
	C313.939453,142.649017 313.638824,144.682587 314.049622,146.560532 
	C314.305328,147.729401 315.637238,148.662842 317.345428,149.703400 
z"/>
<path fill="#040302" opacity="1.000000" stroke="none" 
	d="
M102.998093,181.022888 
	C100.125008,177.754135 97.478409,174.762192 93.887321,170.702530 
	C93.887321,173.919479 93.951859,176.091629 93.874496,178.258713 
	C93.687019,183.510284 90.541222,186.969269 86.139664,186.853256 
	C81.880020,186.740982 78.935318,183.442764 78.914505,178.391022 
	C78.852730,163.401825 78.907249,148.412186 78.887108,133.422760 
	C78.880692,128.643417 81.291481,125.660255 85.914749,125.335846 
	C91.209412,124.964333 96.608948,124.898224 101.869865,125.505539 
	C110.383614,126.488350 116.463783,132.360062 118.484070,140.597717 
	C120.352013,148.214172 117.254807,156.053116 110.381660,161.119125 
	C109.473694,161.788361 108.581528,162.479050 107.468758,163.321198 
	C110.480446,166.776199 113.348900,169.986145 116.126236,173.273071 
	C119.761223,177.575012 119.899277,181.685303 116.612160,184.762268 
	C113.116966,188.033981 108.921204,187.469788 104.875725,183.173340 
	C104.305374,182.567612 103.774002,181.925171 102.998093,181.022888 
M103.173729,142.389236 
	C100.298485,141.430573 97.423241,140.471893 93.862724,139.284729 
	C93.862724,142.278183 93.822006,143.757599 93.874374,145.233704 
	C93.925011,146.661301 94.071495,148.085480 94.170944,149.443802 
	C102.408127,150.003632 104.006676,148.860367 103.173729,142.389236 
z"/>
<path fill="#060503" opacity="1.000000" stroke="none" 
	d="
M147.000107,186.677002 
	C129.702225,186.677216 129.702164,186.677216 129.702271,169.755737 
	C129.702347,158.108627 129.659317,146.461288 129.719299,134.814499 
	C129.754745,127.933937 132.158371,125.539688 139.046356,125.439728 
	C144.535934,125.360062 150.030594,125.315048 155.517609,125.459396 
	C160.979095,125.603065 164.132294,128.584473 164.014999,133.152893 
	C163.902969,137.516434 160.851517,140.233780 155.615280,140.421509 
	C152.167572,140.545120 148.711823,140.444885 145.000031,140.444885 
	C145.000031,143.315506 145.000031,145.710159 145.000031,148.606171 
	C148.565277,148.606171 151.865402,148.441132 155.142288,148.646606 
	C159.554092,148.923248 162.523117,151.903625 162.651459,155.812820 
	C162.784836,159.876465 159.700043,163.164368 155.096832,163.480835 
	C151.826920,163.705627 148.529099,163.524414 145.006287,163.524414 
	C145.006287,166.416718 145.006287,168.805634 145.006287,171.685898 
	C148.910553,171.685898 152.543427,171.561249 156.164276,171.716599 
	C160.985550,171.923462 163.938293,174.763351 164.013718,178.975372 
	C164.089706,183.218811 161.214478,186.255859 156.467255,186.605072 
	C153.487793,186.824249 150.480591,186.665970 147.000107,186.677002 
z"/>
<path fill="#040402" opacity="1.000000" stroke="none" 
	d="
M181.737671,125.242752 
	C186.328156,125.195717 190.489273,125.124535 194.648102,125.193047 
	C206.609451,125.390083 215.698364,133.887192 216.018082,145.106339 
	C216.352097,156.827271 207.893509,165.765656 195.707977,166.516342 
	C193.914871,166.626801 192.109085,166.531693 189.792267,166.531693 
	C189.792267,170.734085 189.893936,174.525620 189.767654,178.309555 
	C189.592804,183.549057 186.367538,186.995422 181.986633,186.851532 
	C177.742065,186.712112 174.846832,183.435928 174.823441,178.346985 
	C174.755386,163.537140 174.847443,148.726501 174.767761,133.916779 
	C174.742599,129.241852 176.709137,126.329704 181.737671,125.242752 
M199.916458,149.276459 
	C199.878677,146.978607 200.735199,143.437119 199.621124,142.635941 
	C197.128098,140.843185 193.653778,140.414978 190.123138,139.285095 
	C190.123138,144.221436 190.123138,147.747208 190.123138,152.334259 
	C193.605255,151.410614 196.504227,150.641647 199.916458,149.276459 
z"/>
<path fill="#070603" opacity="1.000000" stroke="none" 
	d="
M372.971741,125.173080 
	C376.464386,125.176659 379.469604,125.058655 382.461029,125.211174 
	C387.443878,125.465225 390.504944,128.583084 390.346344,133.016449 
	C390.192322,137.322220 387.346069,139.903564 382.399170,140.166992 
	C381.089508,140.236740 379.772980,140.177521 377.890015,140.177521 
	C377.791168,142.164307 377.632843,143.913513 377.628754,145.663086 
	C377.603973,156.326309 377.673645,166.990097 377.588898,177.652725 
	C377.543365,183.382462 374.498444,186.914642 369.968353,186.857056 
	C365.437439,186.799454 362.710663,183.337006 362.585419,177.467987 
	C362.564087,176.468750 362.579987,175.468689 362.579956,174.469009 
	C362.579742,164.805405 362.589813,155.141800 362.569824,145.478226 
	C362.566498,143.866028 362.432556,142.254105 362.348633,140.415192 
	C360.491180,140.320007 359.026581,140.263779 357.564697,140.166580 
	C352.720886,139.844559 349.879944,137.109100 349.868561,132.776230 
	C349.857300,128.484863 352.731598,125.443069 357.485168,125.237511 
	C362.474426,125.021774 367.479797,125.178902 372.971741,125.173080 
z"/>
<path fill="#020202" opacity="1.000000" stroke="none" 
	d="
M235.958054,28.099703 
	C238.589935,28.105516 240.753052,27.979706 242.893860,28.144163 
	C247.486343,28.496958 250.545609,31.609041 250.550995,35.739063 
	C250.556381,39.864666 247.475372,42.913338 242.777451,43.054527 
	C237.648163,43.208687 232.506638,43.212036 227.377823,43.049049 
	C222.785919,42.903126 220.093201,40.242599 219.892014,36.089455 
	C219.684311,31.802084 222.481888,28.561655 227.036789,28.175308 
	C229.832947,27.938143 232.663864,28.110943 235.958054,28.099703 
z"/>
<path fill="#FBDE75" opacity="1.000000" stroke="none" 
	d="
M258.706146,140.240250 
	C267.164276,142.216766 272.049408,146.801117 273.019318,153.329376 
	C274.032593,160.149506 271.035461,166.558914 265.157928,169.785095 
	C259.547485,172.864700 253.939285,172.633728 248.680573,169.012283 
	C243.247162,165.270523 240.971146,159.919846 242.024200,153.426056 
	C243.045853,147.125824 246.899109,143.001358 252.913528,141.022385 
	C254.615540,140.462357 256.501740,140.462158 258.706146,140.240250 
z"/>
<path fill="#F0D470" opacity="1.000000" stroke="none" 
	d="
M316.915771,149.702667 
	C315.637238,148.662842 314.305328,147.729401 314.049622,146.560532 
	C313.638824,144.682587 313.939453,142.649017 313.939453,140.749069 
	C320.630463,139.663345 323.767761,140.752014 323.971466,144.317108 
	C324.235138,148.931717 321.034241,149.719971 316.915771,149.702667 
z"/>
<path fill="#F0D470" opacity="1.000000" stroke="none" 
	d="
M103.387794,142.722214 
	C104.006676,148.860367 102.408127,150.003632 94.170944,149.443802 
	C94.071495,148.085480 93.925011,146.661301 93.874374,145.233704 
	C93.822006,143.757599 93.862724,142.278183 93.862724,139.284729 
	C97.423241,140.471893 100.298485,141.430573 103.387794,142.722214 
z"/>
<path fill="#F1D470" opacity="1.000000" stroke="none" 
	d="
M199.659836,149.574570 
	C196.504227,150.641647 193.605255,151.410614 190.123138,152.334259 
	C190.123138,147.747208 190.123138,144.221436 190.123138,139.285095 
	C193.653778,140.414978 197.128098,140.843185 199.621124,142.635941 
	C200.735199,143.437119 199.878677,146.978607 199.659836,149.574570 
z"/>
</svg>